<svg xmlns="http://www.w3.org/2000/svg" xmlns:xlink="http://www.w3.org/1999/xlink" width="40" height="40" viewBox="0 0 40 40">
  <defs>
    <clipPath id="clip-path">
      <circle id="Ellipse_9" data-name="Ellipse 9" cx="20" cy="20" r="20" transform="translate(683 326)" fill="#528cf8" stroke="#707070" stroke-width="1"/>
    </clipPath>
  </defs>
  <g id="Mask_Group_5" data-name="Mask Group 5" transform="translate(-683 -326)" clip-path="url(#clip-path)">
    <g id="arrows" transform="translate(683 328.032)">
      <path id="Path_15" data-name="Path 15" d="M39.6,18.667a1.172,1.172,0,0,0-1.654.1l-.019.021V17.97A17.937,17.937,0,0,0,11.686,2.079,18.08,18.08,0,0,0,5.433,7.512a1.172,1.172,0,0,0,1.9,1.368,15.588,15.588,0,0,1,28.251,9.09v.821l-.019-.021a1.172,1.172,0,0,0-1.757,1.552l2.069,2.343a1.172,1.172,0,0,0,1.757,0l2.069-2.343a1.172,1.172,0,0,0-.1-1.654Zm0,0" fill="#528cf8"/>
      <path id="Path_16" data-name="Path 16" d="M34.3,26.788a1.172,1.172,0,0,0-1.636.267,15.588,15.588,0,0,1-28.251-9.09v-.821l.019.022a1.172,1.172,0,0,0,1.757-1.552L4.12,13.271a1.172,1.172,0,0,0-1.757,0L.294,15.614A1.172,1.172,0,1,0,2.05,17.166l.019-.022v.821A17.937,17.937,0,0,0,28.314,33.856a18.085,18.085,0,0,0,6.252-5.432,1.172,1.172,0,0,0-.267-1.635Zm0,0" fill="#528cf8"/>
      <path id="Path_17" data-name="Path 17" d="M8.441,20.968a1.17,1.17,0,0,0,.117.889l2.344,4.06a1.171,1.171,0,0,0,1.6.429l1.723-.995a9.442,9.442,0,0,0,2.258,1.307v1.987a1.172,1.172,0,0,0,1.172,1.172h4.687a1.172,1.172,0,0,0,1.172-1.172V26.657a9.442,9.442,0,0,0,2.258-1.307l1.723.995a1.172,1.172,0,0,0,1.6-.429l2.344-4.06a1.172,1.172,0,0,0-.429-1.6l-1.727-1a9.432,9.432,0,0,0,0-2.6l1.729-1a1.172,1.172,0,0,0,.429-1.6L29.1,10a1.172,1.172,0,0,0-1.6-.429l-1.735,1a9.447,9.447,0,0,0-2.247-1.3v-2A1.172,1.172,0,0,0,22.344,6.1H17.656a1.172,1.172,0,0,0-1.172,1.172v2a9.445,9.445,0,0,0-2.247,1.3l-1.735-1A1.172,1.172,0,0,0,10.9,10L8.558,14.058a1.172,1.172,0,0,0,.429,1.6l1.729,1a9.432,9.432,0,0,0,0,2.6l-1.727,1a1.171,1.171,0,0,0-.546.712ZM20,14.45a3.516,3.516,0,1,1-3.516,3.516A3.516,3.516,0,0,1,20,14.45Zm0,0" fill="#528cf8"/>
    </g>
  </g>
</svg>
